<svg version="1.1" viewBox="0 0 1920 1080" xmlns="http://www.w3.org/2000/svg">
    <path d="m1348 1331l-482 39 777 10z" fill="#d4c6b8" stroke="#d4c6b8" stroke-width="1.51"/>
    <path d="m581-265l387 2 1066-41z" fill="#fedcb8" stroke="#fedcb8" stroke-width="1.51"/>
    <path d="m968-263l454 27 612-68z" fill="#f5c4dc" stroke="#f5c4dc" stroke-width="1.51"/>
    <path d="m1422-236l243 33 369-101z" fill="#ebc0e6" stroke="#ebc0e6" stroke-width="1.51"/>
    <path d="m2024-55l115 211 5-261z" fill="#e0c6a1" stroke="#e0c6a1" stroke-width="1.51"/>
    <path d="m2106 512l8 150 43 116z" fill="#dbcea3" stroke="#dbcea3" stroke-width="1.51"/>
    <path d="m2042 331l64 181 73-218z" fill="#dfce89" stroke="#dfce89" stroke-width="1.51"/>
    <path d="m2106 512l51 266 22-484z" fill="#dcdc8a" stroke="#dcdc8a" stroke-width="1.51"/>
    <path d="m2144-105l-5 261 40 138z" fill="#ddbd84" stroke="#ddbd84" stroke-width="1.51"/>
    <path d="m2124 892l-138 58 204 160z" fill="#c9a9e3" stroke="#c9a9e3" stroke-width="1.51"/>
    <path d="m2157 778l-33 114 66 218z" fill="#cbafdb" stroke="#cbafdb" stroke-width="1.51"/>
    <path d="m2179 294l-22 484 33 332z" fill="#d5c9b2" stroke="#d5c9b2" stroke-width="1.51"/>
    <path d="m2006 1257l-363 123 562-84z" fill="#bac3dc" stroke="#bac3dc" stroke-width="1.51"/>
    <path d="m2190 1110l-135 77 150 109z" fill="#b8c5db" stroke="#b8c5db" stroke-width="1.51"/>
    <path d="m2055 1187l-49 70 199 39z" fill="#b8c6db" stroke="#b8c6db" stroke-width="1.51"/>
    <path d="m2179 294l11 816 15 186z" fill="#ccb6d5" stroke="#ccb6d5" stroke-width="1.51"/>
    <path d="m2024-55l8 213 107-2z" fill="#e1ba8d" stroke="#e1ba8d" stroke-width="1.51"/>
    <path d="m2139 156l-97 175 137-37z" fill="#dfc686" stroke="#dfc686" stroke-width="1.51"/>
    <path d="m1986 950l69 237 135-77z" fill="#c3b2e0" stroke="#c3b2e0" stroke-width="1.51"/>
    <path d="m2032 158l10 173 97-175z" fill="#e0bf88" stroke="#e0bf88" stroke-width="1.51"/>
    <path d="m1794 1246l-151 134 363-123z" fill="#c2b7df" stroke="#c2b7df" stroke-width="1.51"/>
    <path d="m2042 331l-46 139 110 42z" fill="#e2ce8c" stroke="#e2ce8c" stroke-width="1.51"/>
    <path d="m2078-279l-54 224 120-50z" fill="#ddd3c4" stroke="#ddd3c4" stroke-width="1.51"/>
    <path d="m1976 850l148 42 33-114z" fill="#d4b4cb" stroke="#d4b4cb" stroke-width="1.51"/>
    <path d="m2114 662l-138 188 181-72z" fill="#d8bdbc" stroke="#d8bdbc" stroke-width="1.51"/>
    <path d="m2106 512l-127 79 135 71z" fill="#e0d197" stroke="#e0d197" stroke-width="1.51"/>
    <path d="m1979 591l-3 259 138-188z" fill="#dec0b0" stroke="#dec0b0" stroke-width="1.51"/>
    <path d="m1976 850l10 100 138-58z" fill="#d2a9d8" stroke="#d2a9d8" stroke-width="1.51"/>
    <path d="m2034-304l-10 249 54-224z" fill="#ddd7d5" stroke="#ddd7d5" stroke-width="1.51"/>
    <path d="m1996 470l-17 121 127-79z" fill="#e2d38e" stroke="#e2d38e" stroke-width="1.51"/>
    <path d="m1825 662l151 188 3-259z" fill="#e2b9b3" stroke="#e2b9b3" stroke-width="1.51"/>
    <path d="m1762-167l262 112 10-249z" fill="#e3cbcf" stroke="#e3cbcf" stroke-width="1.51"/>
    <path d="m2032 158l-149 83 159 90z" fill="#e5ba8b" stroke="#e5ba8b" stroke-width="1.51"/>
    <path d="m1986 950l-129 240 198-3z" fill="#c7ade2" stroke="#c7ade2" stroke-width="1.51"/>
    <path d="m1757-91l-17 268 284-232z" fill="#ebafa5" stroke="#ebafa5" stroke-width="1.51"/>
    <path d="m2024-55l-284 232 292-19z" fill="#e6ae8f" stroke="#e6ae8f" stroke-width="1.51"/>
    <path d="m1740 177l143 64 149-83z" fill="#e8ae8c" stroke="#e8ae8c" stroke-width="1.51"/>
    <path d="m1665-203l97 36 272-137z" fill="#e7c7de" stroke="#e7c7de" stroke-width="1.51"/>
    <path d="m1857 1190l149 67 49-70z" fill="#c0bade" stroke="#c0bade" stroke-width="1.51"/>
    <path d="m1883 241l113 229 46-139z" fill="#e5c18c" stroke="#e5c18c" stroke-width="1.51"/>
    <path d="m1762-167l-5 76 267 36z" fill="#e8bcc0" stroke="#e8bcc0" stroke-width="1.51"/>
    <path d="m1872 894l-15 296 129-240z" fill="#cf9ce6" stroke="#cf9ce6" stroke-width="1.51"/>
    <path d="m1883 241l-118 238 231-9z" fill="#e9be90" stroke="#e9be90" stroke-width="1.51"/>
    <path d="m1857 1190l-63 56 212 11z" fill="#c3b5e0" stroke="#c3b5e0" stroke-width="1.51"/>
    <path d="m1760 769l112 125 104-44z" fill="#dca3d0" stroke="#dca3d0" stroke-width="1.51"/>
    <path d="m1825 662l-65 107 216 81z" fill="#e1abc0" stroke="#e1abc0" stroke-width="1.51"/>
    <path d="m1976 850l-104 44 114 56z" fill="#d5a2d9" stroke="#d5a2d9" stroke-width="1.51"/>
    <path d="m1765 479l214 112 17-121z" fill="#e7c991" stroke="#e7c991" stroke-width="1.51"/>
    <path d="m1765 479l60 183 154-71z" fill="#e9c29b" stroke="#e9c29b" stroke-width="1.51"/>
    <path d="m274 1345l-126 26 718-1z" fill="#dbc683" stroke="#dbc683" stroke-width="1.51"/>
    <path d="m1651 69l89 108 17-268z" fill="#eea19e" stroke="#eea19e" stroke-width="1.51"/>
    <path d="m1740 177l-129 207 154 95z" fill="#efac94" stroke="#efac94" stroke-width="1.51"/>
    <path d="m1607 1004l250 186 15-296z" fill="#d294e9" stroke="#d294e9" stroke-width="1.51"/>
    <path d="m1653 873l-46 131 265-110z" fill="#db8ae3" stroke="#db8ae3" stroke-width="1.51"/>
    <path d="m1740 177l25 302 118-238z" fill="#ecaf91" stroke="#ecaf91" stroke-width="1.51"/>
    <path d="m1607 1004l187 242 63-56z" fill="#cda0e6" stroke="#cda0e6" stroke-width="1.51"/>
    <path d="m1760 769l-107 104 219 21z" fill="#df99d3" stroke="#df99d3" stroke-width="1.51"/>
    <path d="m1607 1004l-43 179 230 63z" fill="#d198e8" stroke="#d198e8" stroke-width="1.51"/>
    <path d="m1765 479l-73 189 133-6z" fill="#ecb7a3" stroke="#ecb7a3" stroke-width="1.51"/>
    <path d="m1580 262l31 122 129-207z" fill="#f1a194" stroke="#f1a194" stroke-width="1.51"/>
    <path d="m1692 668l68 101 65-107z" fill="#e8abb6" stroke="#e8abb6" stroke-width="1.51"/>
    <path d="m1614-28l37 97 106-160z" fill="#f0a5b0" stroke="#f0a5b0" stroke-width="1.51"/>
    <path d="m1564 1183l79 197 151-134z" fill="#c9a8e3" stroke="#c9a8e3" stroke-width="1.51"/>
    <path d="m1665-203l92 112 5-76z" fill="#ebb7cf" stroke="#ebb7cf" stroke-width="1.51"/>
    <path d="m1511 496l181 172 73-189z" fill="#f2b69a" stroke="#f2b69a" stroke-width="1.51"/>
    <path d="m1611 384l-100 112 254-17z" fill="#f2ae98" stroke="#f2ae98" stroke-width="1.51"/>
    <path d="m1692 668l-39 205 107-104z" fill="#e69dc6" stroke="#e69dc6" stroke-width="1.51"/>
    <path d="m1665-203l-51 175 143-63z" fill="#eeafc5" stroke="#eeafc5" stroke-width="1.51"/>
    <path d="m1651 69l-71 193 160-85z" fill="#f09992" stroke="#f09992" stroke-width="1.51"/>
    <path d="m1507 1092l57 91 43-179z" fill="#d790e5" stroke="#d790e5" stroke-width="1.51"/>
    <path d="m1435 601l97 242 160-175z" fill="#efa0b5" stroke="#efa0b5" stroke-width="1.51"/>
    <path d="m1511 496l-76 105 257 67z" fill="#f4b09d" stroke="#f4b09d" stroke-width="1.51"/>
    <path d="m1532 843l121 30 39-205z" fill="#e794cc" stroke="#e794cc" stroke-width="1.51"/>
    <path d="m1564 1183l-105 80 184 117z" fill="#cea7df" stroke="#cea7df" stroke-width="1.51"/>
    <path d="m1407 97l173 165 71-193z" fill="#f2968c" stroke="#f2968c" stroke-width="1.51"/>
    <path d="m1532 843l75 161 46-131z" fill="#df82e3" stroke="#df82e3" stroke-width="1.51"/>
    <path d="m1422-236l192 208 51-175z" fill="#f1b0ce" stroke="#f1b0ce" stroke-width="1.51"/>
    <path d="m1422-236l57 244 135-36z" fill="#f4adb5" stroke="#f4adb5" stroke-width="1.51"/>
    <path d="m1479 8l-72 89 244-28z" fill="#f49d94" stroke="#f49d94" stroke-width="1.51"/>
    <path d="m1614-28l-135 36 172 61z" fill="#f39ca7" stroke="#f39ca7" stroke-width="1.51"/>
    <path d="m1065 1294l-199 76 482-39z" fill="#dad29e" stroke="#dad29e" stroke-width="1.51"/>
    <path d="m1422-236l-46 68 103 176z" fill="#f6b9b5" stroke="#f6b9b5" stroke-width="1.51"/>
    <path d="m1459 1263l-111 68 295 49z" fill="#ceb3d4" stroke="#ceb3d4" stroke-width="1.51"/>
    <path d="m1532 843l-135 140 210 21z" fill="#e185df" stroke="#e185df" stroke-width="1.51"/>
    <path d="m1580 262l-157 50 188 72z" fill="#f4a68e" stroke="#f4a68e" stroke-width="1.51"/>
    <path d="m1423 312l88 184 100-112z" fill="#f5ad8c" stroke="#f5ad8c" stroke-width="1.51"/>
    <path d="m1397 983l110 109 100-88z" fill="#dd8be0" stroke="#dd8be0" stroke-width="1.51"/>
    <path d="m1435 601l-84 195 181 47z" fill="#f0a5af" stroke="#f0a5af" stroke-width="1.51"/>
    <path d="m1407 97l16 215 157-50z" fill="#f5a483" stroke="#f5a483" stroke-width="1.51"/>
    <path d="m1507 1092l-48 171 105-80z" fill="#d59fdc" stroke="#d59fdc" stroke-width="1.51"/>
    <path d="m1317 682l34 114 84-195z" fill="#f4b29a" stroke="#f4b29a" stroke-width="1.51"/>
    <path d="m1423 312l-67 80 155 104z" fill="#f6b580" stroke="#f6b580" stroke-width="1.51"/>
    <path d="m1351 796l46 187 135-140z" fill="#ea95c7" stroke="#ea95c7" stroke-width="1.51"/>
    <path d="m1310 1176l149 87 48-171z" fill="#d9a5d1" stroke="#d9a5d1" stroke-width="1.51"/>
    <path d="m1356 392l79 209 76-105z" fill="#f7bc82" stroke="#f7bc82" stroke-width="1.51"/>
    <path d="m1397 983l-87 193 197-84z" fill="#df9bd1" stroke="#df9bd1" stroke-width="1.51"/>
    <path d="m1290-72l117 169 72-89z" fill="#f8ac8f" stroke="#f8ac8f" stroke-width="1.51"/>
    <path d="m1376-168l-86 96 189 80z" fill="#f7b7a2" stroke="#f7b7a2" stroke-width="1.51"/>
    <path d="m1407 97l-137 220 153-5z" fill="#f6ae74" stroke="#f6ae74" stroke-width="1.51"/>
    <path d="m1310 1176l38 155 111-68z" fill="#d7b3c7" stroke="#d7b3c7" stroke-width="1.51"/>
    <path d="m1351 796l-49 183 95 4z" fill="#ea96c5" stroke="#ea96c5" stroke-width="1.51"/>
    <path d="m1302 979l8 197 87-193z" fill="#e49cca" stroke="#e49cca" stroke-width="1.51"/>
    <path d="m1249 94l21 223 137-220z" fill="#f7ad6a" stroke="#f7ad6a" stroke-width="1.51"/>
    <path d="m1060-154l316-14 46-68z" fill="#facbae" stroke="#facbae" stroke-width="1.51"/>
    <path d="m968-263l92 109 362-82z" fill="#fdd9a3" stroke="#fdd9a3" stroke-width="1.51"/>
    <path d="m1356 392l-39 290 118-81z" fill="#f7c27d" stroke="#f7c27d" stroke-width="1.51"/>
    <path d="m1290-72l-41 166 158 3z" fill="#f8b07d" stroke="#f8b07d" stroke-width="1.51"/>
    <path d="m1270 317l86 75 67-80z" fill="#f7b773" stroke="#f7b773" stroke-width="1.51"/>
    <path d="m1149 392l-68 159 236 131z" fill="#f9d55a" stroke="#f9d55a" stroke-width="1.51"/>
    <path d="m1149 392l168 290 39-290z" fill="#f8c969" stroke="#f8c969" stroke-width="1.51"/>
    <path d="m1060-154l230 82 86-96z" fill="#fac89b" stroke="#fac89b" stroke-width="1.51"/>
    <path d="m1310 1176l-245 118 283 37z" fill="#dbbfb5" stroke="#dbbfb5" stroke-width="1.51"/>
    <path d="m1138 894l164 85 49-183z" fill="#efa1b4" stroke="#efa1b4" stroke-width="1.51"/>
    <path d="m1270 317l-81 29 167 46z" fill="#f8be67" stroke="#f8be67" stroke-width="1.51"/>
    <path d="m1189 346l-40 46h207z" fill="#f8c461" stroke="#f8c461" stroke-width="1.51"/>
    <path d="m1317 682l-222 93 256 21z" fill="#f5b497" stroke="#f5b497" stroke-width="1.51"/>
    <path d="m1095 775l43 119 213-98z" fill="#f3b09d" stroke="#f3b09d" stroke-width="1.51"/>
    <path d="m659 1309l-385 36 592 25z" fill="#dccc86" stroke="#dccc86" stroke-width="1.51"/>
    <path d="m1249 94l-89 3 110 220z" fill="#f7b45d" stroke="#f7b45d" stroke-width="1.51"/>
    <path d="m1141 4l108 90 41-166z" fill="#fabb77" stroke="#fabb77" stroke-width="1.51"/>
    <path d="m1302 979l-211 196 219 1z" fill="#e5adba" stroke="#e5adba" stroke-width="1.51"/>
    <path d="m1091 1175l-26 119 245-118z" fill="#e1c0ab" stroke="#e1c0ab" stroke-width="1.51"/>
    <path d="m1081 551l14 224 222-93z" fill="#f8c677" stroke="#f8c677" stroke-width="1.51"/>
    <path d="m1160 97l29 249 81-29z" fill="#f8bc5b" stroke="#f8bc5b" stroke-width="1.51"/>
    <path d="m1138 894l-47 281 211-196z" fill="#eba6b6" stroke="#eba6b6" stroke-width="1.51"/>
    <path d="m1060-154l81 158 149-76z" fill="#fcc982" stroke="#fcc982" stroke-width="1.51"/>
    <path d="m1141 4l19 93 89-3z" fill="#f9b963" stroke="#f9b963" stroke-width="1.51"/>
    <path d="m1081 551l-62 98 76 126z" fill="#f9d064" stroke="#f9d064" stroke-width="1.51"/>
    <path d="m959 1019l132 156 47-281z" fill="#eeb1a6" stroke="#eeb1a6" stroke-width="1.51"/>
    <path d="m904 59l29 290 227-252z" fill="#f8c82e" stroke="#f8c82e" stroke-width="1.51"/>
    <path d="m1160 97l-227 252 256-3z" fill="#f8c745" stroke="#f8c745" stroke-width="1.51"/>
    <path d="m933 349l216 43 40-46z" fill="#f9ce45" stroke="#f9ce45" stroke-width="1.51"/>
    <path d="m1060-154l-68 40 149 118z" fill="#fdd376" stroke="#fdd376" stroke-width="1.51"/>
    <path d="m1141 4l-237 55 256 38z" fill="#fac451" stroke="#fac451" stroke-width="1.51"/>
    <path d="m933 349l148 202 68-159z" fill="#f9d63d" stroke="#f9d63d" stroke-width="1.51"/>
    <path d="m933 349l-38 102 186 100z" fill="#f8df22" stroke="#f8df22" stroke-width="1.51"/>
    <path d="m992-114l-88 173 237-55z" fill="#fcd05a" stroke="#fcd05a" stroke-width="1.51"/>
    <path d="m1095 775l-136 244 179-125z" fill="#f4b29a" stroke="#f4b29a" stroke-width="1.51"/>
    <path d="m581-265l232 64 155-62z" fill="#ffe38b" stroke="#ffe38b" stroke-width="1.51"/>
    <path d="m959 1019l-25 108 157 48z" fill="#ebc099" stroke="#ebc099" stroke-width="1.51"/>
    <path d="m983 1238l82 56 26-119z" fill="#e2cb9b" stroke="#e2cb9b" stroke-width="1.51"/>
    <path d="m1019 649l-133 87 209 39z" fill="#f8cd68" stroke="#f8cd68" stroke-width="1.51"/>
    <path d="m886 736l73 283 136-244z" fill="#f7bf83" stroke="#f7bf83" stroke-width="1.51"/>
    <path d="m-308-232l489 57 306-87z" fill="#ffd6a2" stroke="#ffd6a2" stroke-width="1.51"/>
    <path d="m934 1127l49 111 108-63z" fill="#e6c898" stroke="#e6c898" stroke-width="1.51"/>
    <path d="m895 451l124 198 62-98z" fill="#f8e331" stroke="#f8e331" stroke-width="1.51"/>
    <path d="m968-263l24 149 68-40z" fill="#fee083" stroke="#fee083" stroke-width="1.51"/>
    <path d="m983 1238l-117 132 199-76z" fill="#ded88d" stroke="#ded88d" stroke-width="1.51"/>
    <path d="M904,59L766,218L933,349Z" fill="#f7ca20" stroke="#f7ca20" stroke-width="1.51"/>
    <path d="m886 736l-96 258 169 25z" fill="#f5b48f" stroke="#f5b48f" stroke-width="1.51"/>
    <path d="m895 451l-64 166 188 32z" fill="#f9e030" stroke="#f9e030" stroke-width="1.51"/>
    <path d="m831 617l55 119 133-87z" fill="#f9d553" stroke="#f9d553" stroke-width="1.51"/>
    <path d="m767-131l137 190 88-173z" fill="#fdd55c" stroke="#fdd55c" stroke-width="1.51"/>
    <path d="m813-201l-46 70 225 17z" fill="#fedc73" stroke="#fedc73" stroke-width="1.51"/>
    <path d="m968-263l-155 62 179 87z" fill="#ffe47f" stroke="#ffe47f" stroke-width="1.51"/>
    <path d="m934 1127l-103 15 152 96z" fill="#e8c891" stroke="#e8c891" stroke-width="1.51"/>
    <path d="m831 1142l35 228 117-132z" fill="#e2d08d" stroke="#e2d08d" stroke-width="1.51"/>
    <path d="m783 735l7 259 96-258z" fill="#f7bd79" stroke="#f7bd79" stroke-width="1.51"/>
    <path d="m767-131l30 197 107-7z" fill="#fccc4b" stroke="#fccc4b" stroke-width="1.51"/>
    <path d="M797,66L766,218L904,59Z" fill="#f7c022" stroke="#f7c022" stroke-width="1.51"/>
    <path d="m831 1142l103-15 25-108z" fill="#ecbf94" stroke="#ecbf94" stroke-width="1.51"/>
    <path d="m790 994l41 148 128-123z" fill="#efb796" stroke="#efb796" stroke-width="1.51"/>
    <path d="m783 735l-99 93 106 166z" fill="#f6b580" stroke="#f6b580" stroke-width="1.51"/>
    <path d="m764 530l67 87 64-166z" fill="#f8e01d" stroke="#f8e01d" stroke-width="1.51"/>
    <path d="m766 218l129 233 38-102z" fill="#f8d31f" stroke="#f8d31f" stroke-width="1.51"/>
    <path d="m831 1142l-172 167 207 61z" fill="#e1cd8b" stroke="#e1cd8b" stroke-width="1.51"/>
    <path d="m831 617l-48 118 103 1z" fill="#f9cd5b" stroke="#f9cd5b" stroke-width="1.51"/>
    <path d="M766,218L643,320L895,451Z" fill="#f8ce20" stroke="#f8ce20" stroke-width="1.51"/>
    <path d="m643 320l121 210 131-79z" fill="#f8d61f" stroke="#f8d61f" stroke-width="1.51"/>
    <path d="m504 1270l-230 75 385-36z" fill="#dfc286" stroke="#dfc286" stroke-width="1.51"/>
    <path d="m767-131l-119 31 149 166z" fill="#fccd5a" stroke="#fccd5a" stroke-width="1.51"/>
    <path d="m693 571l90 164 48-118z" fill="#f8d14a" stroke="#f8d14a" stroke-width="1.51"/>
    <path d="m764 530l-71 41 138 46z" fill="#f9d930" stroke="#f9d930" stroke-width="1.51"/>
    <path d="m790 994l-112 130 153 18z" fill="#edb693" stroke="#edb693" stroke-width="1.51"/>
    <path d="m678 1124l-19 185 172-167z" fill="#e6c18e" stroke="#e6c18e" stroke-width="1.51"/>
    <path d="m643 320l-62 142 183 68z" fill="#f8d01f" stroke="#f8d01f" stroke-width="1.51"/>
    <path d="m684 828l-20 171 126-5z" fill="#f4a892" stroke="#f4a892" stroke-width="1.51"/>
    <path d="m664 999l14 125 112-130z" fill="#efae95" stroke="#efae95" stroke-width="1.51"/>
    <path d="m581-265l186 134 46-70z" fill="#ffdb7f" stroke="#ffdb7f" stroke-width="1.51"/>
    <path d="m581-265l67 165 119-31z" fill="#fed475" stroke="#fed475" stroke-width="1.51"/>
    <path d="m566 140l200 78 31-152z" fill="#f7bc22" stroke="#f7bc22" stroke-width="1.51"/>
    <path d="m648-100l-82 240 231-74z" fill="#fac03f" stroke="#fac03f" stroke-width="1.51"/>
    <path d="m581 462l112 109 71-41z" fill="#f8d81e" stroke="#f8d81e" stroke-width="1.51"/>
    <path d="m693 571l-9 257 99-93z" fill="#f8c55e" stroke="#f8c55e" stroke-width="1.51"/>
    <path d="m503 741l181 87 9-257z" fill="#f8c05e" stroke="#f8c05e" stroke-width="1.51"/>
    <path d="m566 140l77 180 123-102z" fill="#f8c021" stroke="#f8c021" stroke-width="1.51"/>
    <path d="m461 12l105 128 82-240z" fill="#fabc44" stroke="#fabc44" stroke-width="1.51"/>
    <path d="m504 1270l155 39 19-185z" fill="#e3c08b" stroke="#e3c08b" stroke-width="1.51"/>
    <path d="m446 996l218 3 20-171z" fill="#f3a291" stroke="#f3a291" stroke-width="1.51"/>
    <path d="m503 741l-57 255 238-168z" fill="#f6aa7e" stroke="#f6aa7e" stroke-width="1.51"/>
    <path d="m581 462l-83 174 195-65z" fill="#f8d329" stroke="#f8d329" stroke-width="1.51"/>
    <path d="m498 636l5 105 190-170z" fill="#f8c54c" stroke="#f8c54c" stroke-width="1.51"/>
    <path d="m566 140l-68 137 145 43z" fill="#f7bd22" stroke="#f7bd22" stroke-width="1.51"/>
    <path d="m664 999l-218-3 232 128z" fill="#efa893" stroke="#efa893" stroke-width="1.51"/>
    <path d="m401 1192l103 78 174-146z" fill="#e6b78c" stroke="#e6b78c" stroke-width="1.51"/>
    <path d="m446 996l-45 196 277-68z" fill="#ebab8f" stroke="#ebab8f" stroke-width="1.51"/>
    <path d="m-308-232l253 77 236-20z" fill="#ffe0b6" stroke="#ffe0b6" stroke-width="1.51"/>
    <path d="m581-265l-94 3 161 162z" fill="#ffd480" stroke="#ffd480" stroke-width="1.51"/>
    <path d="m498 277l83 185 62-142z" fill="#f8c621" stroke="#f8c621" stroke-width="1.51"/>
    <path d="m487-262l-26 274 187-112z" fill="#fdc968" stroke="#fdc968" stroke-width="1.51"/>
    <path d="m325-158l136 170 26-274z" fill="#fdc56c" stroke="#fdc56c" stroke-width="1.51"/>
    <path d="m358 824l88 172 57-255z" fill="#f5a57d" stroke="#f5a57d" stroke-width="1.51"/>
    <path d="m425 193l73 84 68-137z" fill="#f7b622" stroke="#f7b622" stroke-width="1.51"/>
    <path d="m498 277l-120 254 203-69z" fill="#f8c621" stroke="#f8c621" stroke-width="1.51"/>
    <path d="m378 531l120 105 83-174z" fill="#f8cf22" stroke="#f8cf22" stroke-width="1.51"/>
    <path d="m461 12l-36 181 141-53z" fill="#f6af23" stroke="#f6af23" stroke-width="1.51"/>
    <path d="m314 125l111 68 36-181z" fill="#f6ab25" stroke="#f6ab25" stroke-width="1.51"/>
    <path d="m181-175l144 17 162-104z" fill="#ffc77b" stroke="#ffc77b" stroke-width="1.51"/>
    <path d="m230 698l128 126 140-188z" fill="#f7b25e" stroke="#f7b25e" stroke-width="1.51"/>
    <path d="m248 383l130 148 120-254z" fill="#f7be21" stroke="#f7be21" stroke-width="1.51"/>
    <path d="m249 285l-1 98 250-106z" fill="#f6b622" stroke="#f6b622" stroke-width="1.51"/>
    <path d="m498 636l-140 188 145-83z" fill="#f7b562" stroke="#f7b562" stroke-width="1.51"/>
    <path d="m401 1192l-127 153 230-75z" fill="#e2b988" stroke="#e2b988" stroke-width="1.51"/>
    <path d="m357 992l44 200 45-196z" fill="#eda090" stroke="#eda090" stroke-width="1.51"/>
    <path d="m358 824l-1 168 89 4z" fill="#f3978e" stroke="#f3978e" stroke-width="1.51"/>
    <path d="m378 531l-148 167 268-62z" fill="#f8bf42" stroke="#f8bf42" stroke-width="1.51"/>
    <path d="m425 193l-176 92 249-8z" fill="#f7b423" stroke="#f7b423" stroke-width="1.51"/>
    <path d="m357 992l-63 161 107 39z" fill="#eaa48d" stroke="#eaa48d" stroke-width="1.51"/>
    <path d="m325-158l-63 140 199 30z" fill="#fbb957" stroke="#fbb957" stroke-width="1.51"/>
    <path d="m262-18l52 143 147-113z" fill="#f8ae3d" stroke="#f8ae3d" stroke-width="1.51"/>
    <path d="m314 125l-65 160 176-92z" fill="#f6ad23" stroke="#f6ad23" stroke-width="1.51"/>
    <path d="m294 1153l-20 192 127-153z" fill="#e4b188" stroke="#e4b188" stroke-width="1.51"/>
    <path d="m172 1021l185-29 1-168z" fill="#f39493" stroke="#f39493" stroke-width="1.51"/>
    <path d="M248,383L93,633L378,531Z" fill="#faca38" stroke="#faca38" stroke-width="1.51"/>
    <path d="m93 633l137 65 148-167z" fill="#fac353" stroke="#fac353" stroke-width="1.51"/>
    <path d="m172 1021l122 132 63-161z" fill="#ed9f96" stroke="#ed9f96" stroke-width="1.51"/>
    <path d="m230 698l-143 126h271z" fill="#f8ae7b" stroke="#f8ae7b" stroke-width="1.51"/>
    <path d="m87 824l85 197 186-197z" fill="#f5a295" stroke="#f5a295" stroke-width="1.51"/>
    <path d="m75 425l18 208 155-250z" fill="#fccf4c" stroke="#fccf4c" stroke-width="1.51"/>
    <path d="m141 1179l133 166 20-192z" fill="#e4b796" stroke="#e4b796" stroke-width="1.51"/>
    <path d="m262-18l-78 182 130-39z" fill="#f8ad3c" stroke="#f8ad3c" stroke-width="1.51"/>
    <path d="m184 164l65 121 65-160z" fill="#f8b134" stroke="#f8b134" stroke-width="1.51"/>
    <path d="m183-106l79 88 63-140z" fill="#fdc06c" stroke="#fdc06c" stroke-width="1.51"/>
    <path d="m181-175l2 69 142-52z" fill="#fec77d" stroke="#fec77d" stroke-width="1.51"/>
    <path d="m141 1179l7 192 126-26z" fill="#e0c29b" stroke="#e0c29b" stroke-width="1.51"/>
    <path d="m172 1021l-31 158 153-26z" fill="#ebaca0" stroke="#ebaca0" stroke-width="1.51"/>
    <path d="m183-106l1 270 78-182z" fill="#fcb859" stroke="#fcb859" stroke-width="1.51"/>
    <path d="m37 312l38 113 173-42z" fill="#fcc84f" stroke="#fcc84f" stroke-width="1.51"/>
    <path d="m37 312l211 71 1-98z" fill="#fbc144" stroke="#fbc144" stroke-width="1.51"/>
    <path d="M184,164L37,312L249,285Z" fill="#fbbc48" stroke="#fbbc48" stroke-width="1.51"/>
    <path d="m183-106l-280 69 281 201z" fill="#ffc16f" stroke="#ffc16f" stroke-width="1.51"/>
    <path d="m-97-37l32 204 249-3z" fill="#fdbd66" stroke="#fdbd66" stroke-width="1.51"/>
    <path d="m93 633l-6 191 143-126z" fill="#fbbd7c" stroke="#fbbd7c" stroke-width="1.51"/>
    <path d="m87 824l-81 65 166 132z" fill="#f4a8ac" stroke="#f4a8ac" stroke-width="1.51"/>
    <path d="m-74 1084l215 95 31-158z" fill="#ebb1b4" stroke="#ebb1b4" stroke-width="1.51"/>
    <path d="m181-175l-236 20 238 49z" fill="#ffd092" stroke="#ffd092" stroke-width="1.51"/>
    <path d="m-55-155l-42 118 280-69z" fill="#ffd196" stroke="#ffd196" stroke-width="1.51"/>
    <path d="M-65,167L37,312L184,164Z" fill="#fcc05b" stroke="#fcc05b" stroke-width="1.51"/>
    <path d="m141 1179l-269 73 276 119z" fill="#e0c8b1" stroke="#e0c8b1" stroke-width="1.51"/>
    <path d="m6 889l-80 195 246-63z" fill="#f0a9be" stroke="#f0a9be" stroke-width="1.51"/>
    <path d="m-128 1252l-59 82 335 37z" fill="#dbd6c1" stroke="#dbd6c1" stroke-width="1.51"/>
    <path d="M75,425L-91,495L93,633Z" fill="#fdd962" stroke="#fdd962" stroke-width="1.51"/>
    <path d="m-74 1084l-54 168 269-73z" fill="#e5c2c0" stroke="#e5c2c0" stroke-width="1.51"/>
    <path d="m-111 832l117 57 81-65z" fill="#f7b6ae" stroke="#f7b6ae" stroke-width="1.51"/>
    <path d="m-63 647l-48 185 198-8z" fill="#f9c2a1" stroke="#f9c2a1" stroke-width="1.51"/>
    <path d="m-91 495l28 152 156-14z" fill="#fdd777" stroke="#fdd777" stroke-width="1.51"/>
    <path d="m-63 647l150 177 6-191z" fill="#fbc687" stroke="#fbc687" stroke-width="1.51"/>
    <path d="M37,312L-91,495L75,425Z" fill="#fdd264" stroke="#fdd264" stroke-width="1.51"/>
    <path d="m-174 932l100 152 80-195z" fill="#f0add2" stroke="#f0add2" stroke-width="1.51"/>
    <path d="m-154 337l63 158 128-183z" fill="#fed571" stroke="#fed571" stroke-width="1.51"/>
    <path d="m-102 228l-52 109 191-25z" fill="#fece71" stroke="#fece71" stroke-width="1.51"/>
    <path d="m-65 167l-37 61 139 84z" fill="#fdc86b" stroke="#fdc86b" stroke-width="1.51"/>
    <path d="m-111 832l-63 100 180-43z" fill="#f4b8c3" stroke="#f4b8c3" stroke-width="1.51"/>
    <path d="m-239 1130l111 122 54-168z" fill="#e4c9d5" stroke="#e4c9d5" stroke-width="1.51"/>
    <path d="m-97-37l-100 144 132 60z" fill="#ffc87f" stroke="#ffc87f" stroke-width="1.51"/>
    <path d="m-91 495l-188 93 216 59z" fill="#ffe289" stroke="#ffe289" stroke-width="1.51"/>
    <path d="m-198 737l87 95 48-185z" fill="#fbccaa" stroke="#fbccaa" stroke-width="1.51"/>
    <path d="m-285-27l188-10 42-118z" fill="#ffd9a8" stroke="#ffd9a8" stroke-width="1.51"/>
    <path d="m-308-232l23 205 230-128z" fill="#ffe5c4" stroke="#ffe5c4" stroke-width="1.51"/>
    <path d="m-154 337l-87 88 150 70z" fill="#ffdf81" stroke="#ffdf81" stroke-width="1.51"/>
    <path d="m-279 588l81 149 135-90z" fill="#fddba1" stroke="#fddba1" stroke-width="1.51"/>
    <path d="m-197 107l95 121 37-61z" fill="#fec877" stroke="#fec877" stroke-width="1.51"/>
    <path d="m-174 932l-65 198 165-46z" fill="#ebbddc" stroke="#ebbddc" stroke-width="1.51"/>
    <path d="m-285-27l88 134 100-144z" fill="#ffd39b" stroke="#ffd39b" stroke-width="1.51"/>
    <path d="m-241 425l-38 163 188-93z" fill="#ffe88a" stroke="#ffe88a" stroke-width="1.51"/>
    <path d="m-197 107l43 230 52-109z" fill="#ffce7d" stroke="#ffce7d" stroke-width="1.51"/>
    <path d="m-198 737l24 195 63-100z" fill="#f7c3c4" stroke="#f7c3c4" stroke-width="1.51"/>
    <path d="m-239 1130l52 204 59-82z" fill="#ded5d9" stroke="#ded5d9" stroke-width="1.51"/>
    <path d="m-197 107l-44 318 87-88z" fill="#ffd786" stroke="#ffd786" stroke-width="1.51"/>
    <path d="m-279 588l40 542 41-393z" fill="#f8cbcd" stroke="#f8cbcd" stroke-width="1.51"/>
    <path d="m-198 737l-41 393 65-198z" fill="#f2badf" stroke="#f2badf" stroke-width="1.51"/>
    <path d="m-285-27l44 452 44-318z" fill="#ffd08b" stroke="#ffd08b" stroke-width="1.51"/>
    <path d="m-285-27l6 615 38-163z" fill="#ffdf92" stroke="#ffdf92" stroke-width="1.51"/>
    <path d="m-285-27l-23-205 29 820z" fill="#ffd094" stroke="#ffd094" stroke-width="1.51"/>
</svg>
